<mxfile host="app.diagrams.net" modified="2023-12-16T16:58:41.466Z" agent="Mozilla/5.0 (Macintosh; Intel Mac OS X 10_15_7) AppleWebKit/537.36 (KHTML, like Gecko) Chrome/120.0.0.0 Safari/537.36" etag="ti2NlmUu7Ax2f3tMZlAX" version="22.1.11" type="github">
  <diagram name="Page-1" id="Ou9CGDNv53-zidoVRT-c">
    <mxGraphModel dx="1059" dy="793" grid="1" gridSize="10" guides="1" tooltips="1" connect="1" arrows="1" fold="1" page="1" pageScale="1" pageWidth="850" pageHeight="1100" math="1" shadow="0">
      <root>
        <mxCell id="0" />
        <mxCell id="1" parent="0" />
        <mxCell id="pvy-sQZT3Z1twqJ75sl3-1" value="" style="rounded=1;whiteSpace=wrap;html=1;" vertex="1" parent="1">
          <mxGeometry x="230" y="210" width="400" height="310" as="geometry" />
        </mxCell>
        <mxCell id="pvy-sQZT3Z1twqJ75sl3-2" value="&lt;h1 style=&quot;border-color: var(--border-color);&quot;&gt;`\kappa_i`&lt;/h1&gt;" style="ellipse;whiteSpace=wrap;html=1;aspect=fixed;" vertex="1" parent="1">
          <mxGeometry x="490" y="250" width="80" height="80" as="geometry" />
        </mxCell>
        <mxCell id="pvy-sQZT3Z1twqJ75sl3-4" value="" style="rounded=1;whiteSpace=wrap;html=1;" vertex="1" parent="1">
          <mxGeometry x="300" y="250" width="120" height="190" as="geometry" />
        </mxCell>
        <mxCell id="pvy-sQZT3Z1twqJ75sl3-5" value="&lt;h1 style=&quot;border-color: var(--border-color);&quot;&gt;`\mu_i`&lt;/h1&gt;" style="ellipse;whiteSpace=wrap;html=1;aspect=fixed;" vertex="1" parent="1">
          <mxGeometry x="490" y="350" width="80" height="80" as="geometry" />
        </mxCell>
        <mxCell id="pvy-sQZT3Z1twqJ75sl3-6" value="&lt;h1 style=&quot;border-color: var(--border-color);&quot;&gt;`\mu_\kappa`&lt;/h1&gt;" style="ellipse;whiteSpace=wrap;html=1;aspect=fixed;" vertex="1" parent="1">
          <mxGeometry x="680" y="250" width="80" height="80" as="geometry" />
        </mxCell>
        <mxCell id="pvy-sQZT3Z1twqJ75sl3-7" value="&lt;h1 style=&quot;border-color: var(--border-color);&quot;&gt;`\sigma_\kappa`&lt;/h1&gt;" style="ellipse;whiteSpace=wrap;html=1;aspect=fixed;" vertex="1" parent="1">
          <mxGeometry x="680" y="150" width="80" height="80" as="geometry" />
        </mxCell>
        <mxCell id="pvy-sQZT3Z1twqJ75sl3-8" value="" style="endArrow=classic;html=1;rounded=0;exitX=0;exitY=0.5;exitDx=0;exitDy=0;entryX=1;entryY=0;entryDx=0;entryDy=0;endFill=1;" edge="1" parent="1" source="pvy-sQZT3Z1twqJ75sl3-7" target="pvy-sQZT3Z1twqJ75sl3-2">
          <mxGeometry width="50" height="50" relative="1" as="geometry">
            <mxPoint x="300" y="320" as="sourcePoint" />
            <mxPoint x="620" y="190" as="targetPoint" />
          </mxGeometry>
        </mxCell>
        <mxCell id="pvy-sQZT3Z1twqJ75sl3-9" value="" style="endArrow=classic;html=1;rounded=0;endFill=1;entryX=1;entryY=0.5;entryDx=0;entryDy=0;exitX=0;exitY=0.5;exitDx=0;exitDy=0;" edge="1" parent="1" source="pvy-sQZT3Z1twqJ75sl3-6" target="pvy-sQZT3Z1twqJ75sl3-2">
          <mxGeometry width="50" height="50" relative="1" as="geometry">
            <mxPoint x="680" y="300" as="sourcePoint" />
            <mxPoint x="558" y="262" as="targetPoint" />
          </mxGeometry>
        </mxCell>
        <mxCell id="pvy-sQZT3Z1twqJ75sl3-11" value="&lt;h1 style=&quot;border-color: var(--border-color);&quot;&gt;`\sigma_\mu`&lt;/h1&gt;" style="ellipse;whiteSpace=wrap;html=1;aspect=fixed;" vertex="1" parent="1">
          <mxGeometry x="680" y="350" width="80" height="80" as="geometry" />
        </mxCell>
        <mxCell id="pvy-sQZT3Z1twqJ75sl3-13" value="&lt;h1 style=&quot;border-color: var(--border-color);&quot;&gt;`M_\mu`&lt;/h1&gt;" style="ellipse;whiteSpace=wrap;html=1;aspect=fixed;" vertex="1" parent="1">
          <mxGeometry x="680" y="450" width="80" height="80" as="geometry" />
        </mxCell>
        <mxCell id="pvy-sQZT3Z1twqJ75sl3-14" value="" style="endArrow=classic;html=1;rounded=0;endFill=1;exitX=0;exitY=0.5;exitDx=0;exitDy=0;entryX=1;entryY=1;entryDx=0;entryDy=0;" edge="1" parent="1" source="pvy-sQZT3Z1twqJ75sl3-13" target="pvy-sQZT3Z1twqJ75sl3-5">
          <mxGeometry width="50" height="50" relative="1" as="geometry">
            <mxPoint x="690" y="400" as="sourcePoint" />
            <mxPoint x="580" y="400" as="targetPoint" />
          </mxGeometry>
        </mxCell>
        <mxCell id="pvy-sQZT3Z1twqJ75sl3-17" value="&lt;h1&gt;&lt;br&gt;&lt;/h1&gt;" style="text;html=1;strokeColor=none;fillColor=none;align=center;verticalAlign=middle;whiteSpace=wrap;rounded=0;" vertex="1" parent="1">
          <mxGeometry x="240" y="10" width="130" height="80" as="geometry" />
        </mxCell>
        <mxCell id="pvy-sQZT3Z1twqJ75sl3-20" value="&lt;h1 style=&quot;border-color: var(--border-color);&quot;&gt;`x_{ij}`&lt;/h1&gt;" style="ellipse;whiteSpace=wrap;html=1;aspect=fixed;" vertex="1" parent="1">
          <mxGeometry x="320" y="300" width="80" height="80" as="geometry" />
        </mxCell>
        <mxCell id="pvy-sQZT3Z1twqJ75sl3-21" value="" style="endArrow=classic;html=1;rounded=0;endFill=1;exitX=0;exitY=0.5;exitDx=0;exitDy=0;entryX=1;entryY=0;entryDx=0;entryDy=0;" edge="1" parent="1" source="pvy-sQZT3Z1twqJ75sl3-2" target="pvy-sQZT3Z1twqJ75sl3-20">
          <mxGeometry width="50" height="50" relative="1" as="geometry">
            <mxPoint x="510" y="328.67" as="sourcePoint" />
            <mxPoint x="400" y="328.67" as="targetPoint" />
          </mxGeometry>
        </mxCell>
        <mxCell id="pvy-sQZT3Z1twqJ75sl3-22" value="" style="endArrow=classic;html=1;rounded=0;endFill=1;exitX=0;exitY=0.5;exitDx=0;exitDy=0;entryX=1;entryY=1;entryDx=0;entryDy=0;" edge="1" parent="1" source="pvy-sQZT3Z1twqJ75sl3-5" target="pvy-sQZT3Z1twqJ75sl3-20">
          <mxGeometry width="50" height="50" relative="1" as="geometry">
            <mxPoint x="500" y="300" as="sourcePoint" />
            <mxPoint x="398" y="322" as="targetPoint" />
          </mxGeometry>
        </mxCell>
        <mxCell id="pvy-sQZT3Z1twqJ75sl3-23" value="&lt;h3&gt;point of j&lt;/h3&gt;" style="text;html=1;strokeColor=none;fillColor=none;align=center;verticalAlign=middle;whiteSpace=wrap;rounded=0;" vertex="1" parent="1">
          <mxGeometry x="320" y="389" width="80" height="41" as="geometry" />
        </mxCell>
        <mxCell id="pvy-sQZT3Z1twqJ75sl3-26" value="" style="endArrow=classic;html=1;rounded=0;endFill=1;exitX=0;exitY=0.5;exitDx=0;exitDy=0;entryX=1;entryY=0.5;entryDx=0;entryDy=0;" edge="1" parent="1" source="pvy-sQZT3Z1twqJ75sl3-11" target="pvy-sQZT3Z1twqJ75sl3-5">
          <mxGeometry width="50" height="50" relative="1" as="geometry">
            <mxPoint x="690" y="300" as="sourcePoint" />
            <mxPoint x="580" y="300" as="targetPoint" />
          </mxGeometry>
        </mxCell>
        <mxCell id="pvy-sQZT3Z1twqJ75sl3-28" value="&lt;h3&gt;participant of i&lt;/h3&gt;" style="text;html=1;strokeColor=none;fillColor=none;align=center;verticalAlign=middle;whiteSpace=wrap;rounded=0;" vertex="1" parent="1">
          <mxGeometry x="310" y="460" width="100" height="41" as="geometry" />
        </mxCell>
      </root>
    </mxGraphModel>
  </diagram>
</mxfile>
